# xmcd
#
# Track frame offsets:
#	150
#	17550
#	37161
#	57904
#	71788
#	84356
#	113830
#	139787
#
# Disc length: 2306 seconds
# Revision: 0
# Processed by: cddbd v1.5.2PL0 Copyright (c) Steve Scherf et al.
# Submitted via: dBpowerAMP V12.0
#
DISCID=6a090008
DTITLE=Various Artist - Aureola
DYEAR=2012
DGENRE=Alt. Country
TTITLE0=Hush Arbors - Lowly Ghost
TTITLE1=Hush Arbors - Prayer of Forgetfulness
TTITLE2=Hush Arbors - Up Yr Coast
TTITLE3=Hush Arbors - People and Places
TTITLE4=Hush Arbors - The Sleeper
TTITLE5=Arbouretum - New Scarab
TTITLE6=Arbouretum - The Black Sun
TTITLE7=Arbouretum - St. Anthony's Fire
EXTD=
EXTT0=
EXTT1=
EXTT2=
EXTT3=
EXTT4=
EXTT5=
EXTT6=
EXTT7=
PLAYORDER=
